<svg version="1.1" id="Layer_1" xmlns="http://www.w3.org/2000/svg" xmlns:xlink="http://www.w3.org/1999/xlink" x="0px" y="0px"
	 width="10%" height="10%" viewBox="0 0 1024 1024" enable-background="new 0 0 1024 1024" xml:space="preserve">
<path fill="#000000" opacity="1.000000" stroke="none" 
	d="
M596.717163,573.229248 
	C597.733887,560.185059 602.595886,555.891052 615.175964,555.586853 
	C634.487122,555.119873 653.778137,554.789246 673.098145,555.618652 
	C697.364929,556.660645 716.733093,580.102295 712.311584,603.602722 
	C711.005493,610.544861 707.205139,616.138306 702.735779,621.078186 
	C703.199402,623.230957 704.675476,624.182007 705.848877,625.298584 
	C722.921814,641.544067 719.042114,668.396851 701.334106,682.335632 
	C691.814026,689.829285 680.887390,693.235657 668.838196,693.243164 
	C651.014099,693.254211 633.189941,693.281067 615.365845,693.264465 
	C603.416138,693.253357 596.771790,686.514954 596.748291,674.147949 
	C596.684692,640.665283 596.718506,607.182373 596.717163,573.229248 
M644.520020,639.353149 
	C641.196838,639.353760 637.869934,639.451477 634.551514,639.326111 
	C631.587280,639.214172 630.325378,640.324951 630.497620,643.416626 
	C630.765198,648.219666 630.987122,653.051086 630.757751,657.847961 
	C630.568726,661.801147 632.404541,662.791382 635.838074,662.642456 
	C641.643127,662.390503 647.452515,662.198547 653.262085,662.098633 
	C659.725769,661.987488 666.195618,662.797913 672.656250,661.788269 
	C679.148132,660.773621 684.757935,655.132080 684.584839,649.618958 
	C684.406250,643.929932 679.174805,639.680786 671.931885,639.358032 
	C670.936584,639.313721 669.938293,639.330627 668.941345,639.331421 
	C661.131775,639.337769 653.322266,639.347229 644.520020,639.353149 
M660.446411,586.313782 
	C652.475586,586.324524 644.503540,586.419128 636.534424,586.308411 
	C632.899841,586.257996 630.862976,587.506775 630.813599,591.394592 
	C630.756897,595.865051 630.578674,600.335571 630.366211,604.801819 
	C630.247864,607.289612 631.263489,608.553467 633.799072,608.552551 
	C645.753662,608.548157 657.712585,608.744202 669.661011,608.474670 
	C675.103638,608.351929 679.679626,603.910828 680.522339,599.020630 
	C681.219788,594.973633 677.906128,590.018860 673.166748,587.643616 
	C669.373535,585.742615 665.364990,586.489197 660.446411,586.313782 
z"/>
<path fill="#000000" opacity="1.000000" stroke="none" 
	d="
M398.129578,645.054443 
	C396.097412,648.530823 394.277527,651.710205 392.379730,654.842346 
	C385.037537,666.959961 370.107513,667.218872 362.658997,655.138245 
	C357.506226,646.781128 352.902771,638.085815 348.020020,629.561035 
	C347.405945,628.488953 347.254547,626.991882 345.623108,626.586731 
	C344.573242,628.483093 345.078766,630.489197 345.080505,632.416931 
	C345.092255,645.410767 345.114197,658.404846 345.218567,671.398193 
	C345.243042,674.441895 344.708588,677.388611 343.928406,680.262024 
	C341.553619,689.008240 333.524994,694.444092 325.102112,693.201599 
	C317.762177,692.118774 311.708496,684.655823 311.689819,676.197388 
	C311.623932,646.377380 311.672058,616.557129 311.681030,586.736938 
	C311.682556,581.739258 311.486450,576.729675 311.759338,571.746216 
	C312.456573,559.013184 323.272614,551.789673 335.368683,555.769653 
	C338.549530,556.816284 340.789856,558.842773 342.463409,561.698792 
	C352.478729,578.790833 362.522766,595.866150 372.590820,612.927185 
	C374.011292,615.334167 375.616089,617.632324 377.644684,620.767700 
	C381.221954,614.539490 384.377960,608.994629 387.581451,603.477356 
	C395.023071,590.661255 402.440643,577.830750 409.975098,565.069336 
	C411.916290,561.781433 414.080475,558.592285 417.600189,556.648865 
	C427.656891,551.095825 439.606812,557.564941 441.235535,569.675598 
	C441.898804,574.607483 442.164185,579.626160 442.178619,584.606567 
	C442.263794,613.926636 442.204071,643.247131 442.248352,672.567383 
	C442.252930,675.602112 441.902313,678.565002 441.084137,681.449402 
	C438.996155,688.810242 432.918671,693.267334 425.101288,693.320129 
	C417.939789,693.368469 412.156586,689.052429 409.883087,681.910583 
	C409.016296,679.187561 408.821259,676.378601 408.824829,673.522583 
	C408.841431,660.195190 408.806335,646.867737 408.740509,633.540527 
	C408.732666,631.955261 409.194275,630.280518 407.995453,628.268005 
	C404.651215,633.951721 401.478638,639.343689 398.129578,645.054443 
z"/>
<path fill="#000000" opacity="1.000000" stroke="none" 
	d="
M534.239563,318.003876 
	C534.190002,380.944977 534.139282,443.386932 534.094116,505.828918 
	C534.089478,512.216370 533.801453,518.575500 529.702026,523.910889 
	C524.527222,530.645935 516.258789,533.179321 508.228607,530.717407 
	C500.674225,528.401306 495.217194,520.931641 494.719208,512.086609 
	C494.579010,509.596313 494.671051,507.092468 494.670654,504.594849 
	C494.660339,438.822083 494.658447,373.049286 494.627777,307.276520 
	C494.625824,303.079285 494.875885,298.999786 496.771057,295.118317 
	C500.788971,286.889252 508.514191,282.688293 518.085571,283.696320 
	C525.018005,284.426422 531.258301,290.872131 533.222717,299.114410 
	C534.672974,305.199707 534.118042,311.363647 534.239563,318.003876 
z"/>
<path fill="#000000" opacity="1.000000" stroke="none" 
	d="
M468.924988,694.286011 
	C455.446899,693.111633 449.548462,683.881836 454.795990,671.832520 
	C470.151947,636.572388 485.775818,601.428772 501.365143,566.270752 
	C504.705170,558.738037 510.483521,554.728149 518.946045,554.585754 
	C527.752930,554.437683 532.871643,559.445190 536.166321,566.717041 
	C547.158264,590.977905 557.963623,615.323303 568.850708,639.631714 
	C573.206299,649.356873 577.572083,659.077576 581.965576,668.785645 
	C584.281128,673.902161 585.916565,679.003296 583.465332,684.620117 
	C580.763184,690.811951 575.889832,694.021667 569.430054,694.126282 
	C562.918274,694.231750 557.300964,691.809937 554.409851,685.356628 
	C550.598389,676.849121 546.824036,668.322998 543.208984,659.731140 
	C542.344727,657.677063 541.566406,656.198303 539.019592,656.449829 
	C526.058350,657.729797 513.070251,656.471985 500.094055,656.729370 
	C497.195892,656.786865 495.993927,657.896667 494.944763,660.284790 
	C491.529480,668.058960 487.984039,675.777161 484.403168,683.477112 
	C481.430298,689.869690 476.458374,693.585632 468.924988,694.286011 
M511.264496,625.180176 
	C516.477966,626.251404 521.661255,625.653320 527.492676,625.469482 
	C525.332764,618.225342 522.223267,612.296326 518.703064,605.293579 
	C516.012390,611.633484 513.858765,616.656555 511.759247,621.702148 
	C511.381775,622.609192 511.227142,623.608948 511.264496,625.180176 
z"/>
<path fill="#000000" opacity="1.000000" stroke="none" 
	d="
M472.367249,455.985260 
	C472.353210,475.132782 472.568176,493.787689 472.247986,512.433411 
	C472.009521,526.319885 457.882965,535.514526 445.287659,530.061523 
	C437.566772,526.718811 432.696747,520.636536 432.683807,511.886169 
	C432.607391,460.260376 432.585938,408.634064 432.754761,357.008636 
	C432.802643,342.365662 444.808533,333.072174 458.141144,336.770996 
	C466.600494,339.117889 472.243134,347.427612 472.276459,358.065277 
	C472.362030,385.376892 472.332947,412.688843 472.350525,440.000671 
	C472.353851,445.163330 472.361084,450.326019 472.367249,455.985260 
z"/>
<path fill="#000000" opacity="1.000000" stroke="none" 
	d="
M595.869629,506.934692 
	C595.285645,511.322388 595.927734,515.407043 594.462891,519.234192 
	C591.158936,527.866455 581.862061,532.864502 572.141479,531.251648 
	C564.280151,529.947327 556.764709,521.221069 556.701355,512.594238 
	C556.532349,489.597076 556.700439,466.597626 556.576599,443.599945 
	C556.443787,418.943848 556.986023,394.286896 556.185364,369.628235 
	C555.976685,363.200470 555.848206,356.601196 557.594177,350.269196 
	C560.365051,340.220428 567.998352,335.002655 578.564026,335.714691 
	C586.682434,336.261841 594.123779,343.891937 595.260620,353.085724 
	C595.729431,356.876892 595.986572,360.720612 595.981934,364.540009 
	C595.934631,403.698425 595.884521,442.857178 595.655823,482.014771 
	C595.608154,490.176483 595.242798,498.331146 595.869629,506.934692 
z"/>
<path fill="#000000" opacity="1.000000" stroke="none" 
	d="
M370.806946,436.313599 
	C371.000610,432.830536 371.697937,429.936707 372.906189,427.159912 
	C376.740173,418.349121 382.359192,415.111176 392.839935,415.690521 
	C400.034943,416.088226 406.651398,421.635803 408.815399,429.444153 
	C409.606781,432.299713 410.120300,435.332428 410.134521,438.287354 
	C410.250031,462.270874 410.292847,486.255432 410.195404,510.239014 
	C410.149628,521.511902 404.187653,529.473633 394.819611,531.393127 
	C382.163330,533.986389 370.794495,524.409058 370.732666,510.726044 
	C370.621338,486.076477 370.758148,461.425781 370.806946,436.313599 
z"/>
<path fill="#000000" opacity="1.000000" stroke="none" 
	d="
M617.716064,477.999939 
	C617.714966,464.516632 617.753540,451.533081 617.684387,438.550140 
	C617.668274,435.519653 618.049500,432.572266 618.780640,429.665894 
	C620.774292,421.740662 627.060608,416.169556 634.437439,415.702057 
	C644.343994,415.074219 651.703247,419.254761 654.901917,427.421478 
	C656.370789,431.171661 657.061584,435.111908 657.075806,439.130371 
	C657.161377,463.265350 657.317566,487.401001 657.211914,511.535400 
	C657.162170,522.893066 647.963318,532.175659 637.492920,532.022217 
	C626.834412,531.865967 617.984558,522.825867 617.768188,511.456818 
	C617.559143,500.474854 617.718750,489.485870 617.716064,477.999939 
z"/>
<path fill="#000000" opacity="1.000000" stroke="none" 
	d="
M349.000458,514.424194 
	C345.981018,527.971375 336.659485,534.336243 324.715179,531.396362 
	C317.494781,529.619141 311.600586,523.646118 310.942596,516.045044 
	C310.372925,509.463776 310.335266,502.700592 311.182709,496.163055 
	C312.594055,485.275360 320.816498,478.264465 330.240631,478.867584 
	C340.761047,479.540833 348.564484,487.721710 349.149963,499.043915 
	C349.406769,504.010101 349.113892,509.004730 349.000458,514.424194 
z"/>
<path fill="#000000" opacity="1.000000" stroke="none" 
	d="
M689.889893,480.471313 
	C705.657776,475.049347 717.690247,485.797516 717.256775,501.085846 
	C717.106689,506.376770 717.907593,511.699524 716.485840,516.956055 
	C713.834534,526.758911 707.212952,531.903259 697.302429,531.668335 
	C687.973206,531.447144 680.553650,525.306946 679.158020,515.607544 
	C678.096191,508.228210 678.011353,500.651337 679.924988,493.322021 
	C681.349182,487.867432 684.080627,483.162964 689.889893,480.471313 
z"/>
<path fill="#000000" opacity="1.000000" stroke="none" 
	d="
M624.727173,739.910828 
	C623.391052,734.467468 624.090576,729.304077 623.832153,724.184082 
	C623.715637,721.875000 625.166321,720.923889 627.289734,720.894897 
	C630.764343,720.847473 634.239685,720.536987 637.692139,721.384827 
	C644.240173,722.992981 646.482422,726.964539 643.627869,733.027344 
	C641.924072,736.646057 645.223999,737.906311 646.373413,740.380188 
	C641.234192,743.299561 640.552673,738.151978 638.426514,735.978699 
	C636.216187,736.866699 637.117126,739.490417 635.462280,740.472778 
	C634.712524,740.674194 634.283875,740.317627 633.836914,739.737671 
	C632.791565,738.381470 633.335815,735.638184 630.908081,735.612915 
	C628.587830,735.588684 629.180908,738.049866 628.499146,739.415771 
	C627.637329,741.142456 626.485046,741.479614 624.727173,739.910828 
M632.836365,725.949829 
	C631.398499,726.200317 629.452881,726.128540 629.609497,728.184143 
	C629.766418,730.243408 631.706421,729.835327 633.144409,729.909119 
	C634.132385,729.959900 635.145142,729.863953 636.104858,730.050049 
	C637.659973,730.351562 639.290955,730.700745 639.584351,728.577332 
	C639.867737,726.525879 638.144104,726.243591 636.638855,726.040527 
	C635.659119,725.908386 634.656128,725.949158 632.836365,725.949829 
z"/>
<path fill="#000000" opacity="1.000000" stroke="none" 
	d="
M532.536865,722.950256 
	C532.856140,726.653076 532.948792,729.973694 533.227661,733.278687 
	C533.378113,735.062439 534.251160,736.576660 536.300232,736.555786 
	C538.315796,736.535095 539.275269,734.963989 539.447327,733.264893 
	C539.731140,730.463989 539.621338,727.624695 539.722168,724.803162 
	C539.771362,723.424622 539.979797,722.024475 541.803589,722.018982 
	C543.502747,722.013855 544.084351,723.251160 544.144897,724.679077 
	C544.264465,727.500366 544.281555,730.326904 544.291748,733.151489 
	C544.300598,735.590881 545.599243,736.974976 547.906921,737.022217 
	C550.436218,737.073914 550.623047,735.070374 550.647217,733.143921 
	C550.684814,730.153137 550.668701,727.160706 550.767212,724.171997 
	C550.808777,722.911987 551.345642,721.887939 552.871704,721.967896 
	C554.102966,722.032349 554.654175,722.978516 554.716797,723.961243 
	C555.001465,728.425171 555.763733,733.013428 554.619141,737.334167 
	C553.383301,741.999573 549.221680,741.881958 545.590271,740.832336 
	C543.107666,740.114807 541.101624,739.740845 538.523621,740.719788 
	C533.903259,742.474243 530.369080,740.521057 528.746460,735.817505 
	C527.415039,731.957825 527.570251,727.904175 528.045959,723.963989 
	C528.372437,721.260193 529.957642,719.990845 532.536865,722.950256 
z"/>
<path fill="#000000" opacity="1.000000" stroke="none" 
	d="
M312.102417,725.502075 
	C312.086700,729.940857 312.121216,733.939270 312.002655,737.933105 
	C311.958252,739.429749 311.699585,741.124084 309.589233,741.019470 
	C307.428925,740.912292 307.591400,739.212097 307.574249,737.697754 
	C307.550201,735.577393 307.940216,733.418457 307.082794,731.286865 
	C305.414978,731.846375 304.884949,733.329834 304.001770,734.480164 
	C303.105560,735.647522 302.463562,737.084961 300.678192,737.631531 
	C298.094177,736.706909 297.792114,733.352539 295.074554,731.894897 
	C293.567688,734.038025 294.698517,736.379028 294.421936,738.509644 
	C294.267883,739.696472 294.039642,740.876648 292.520813,741.026917 
	C290.791840,741.197998 290.004608,740.107178 289.971283,738.648254 
	C289.857178,733.657349 289.605652,728.643127 289.960724,723.677490 
	C290.186676,720.517700 292.457947,720.908630 294.165070,722.638184 
	C296.461090,724.964355 298.470306,727.573669 300.631409,730.095032 
	C303.228821,728.279358 304.255890,725.744995 305.814056,723.637451 
	C306.864685,722.216309 308.084961,721.169006 310.001556,721.556885 
	C311.956696,721.952515 311.941895,723.564880 312.102417,725.502075 
z"/>
<path fill="#000000" opacity="1.000000" stroke="none" 
	d="
M618.557617,729.201782 
	C618.139648,731.028198 619.075256,732.091980 619.589294,733.288269 
	C620.956909,736.471191 619.745667,739.020142 616.997437,740.413940 
	C613.483459,742.196167 609.542358,741.497803 605.794678,741.012146 
	C604.271057,740.814697 604.067078,739.124207 604.043518,737.794556 
	C603.970337,733.657532 604.014404,729.518616 603.965027,725.381042 
	C603.926514,722.154297 605.717224,721.187317 608.666809,721.014404 
	C616.975952,720.527344 619.568726,722.472961 618.557617,729.201782 
M614.264954,736.407166 
	C615.892395,734.976135 614.915039,734.037659 613.507751,733.658813 
	C611.798828,733.198792 609.964111,733.111877 609.518433,735.506226 
	C610.711121,737.181335 612.249756,736.580200 614.264954,736.407166 
z"/>
<path fill="#000000" opacity="1.000000" stroke="none" 
	d="
M708.813538,732.919617 
	C708.801392,731.608521 708.694519,730.763489 708.801208,729.946472 
	C709.175781,727.079407 707.182678,723.031555 710.104126,721.583984 
	C713.750305,719.777405 718.280029,720.210449 722.263000,721.724487 
	C726.054871,723.165955 727.400818,727.081055 725.951050,731.374023 
	C724.286499,736.302856 724.286560,736.302856 726.062012,740.592285 
	C723.344116,742.029968 721.428955,741.292969 720.057800,738.651550 
	C719.116943,736.839417 718.129089,735.026733 715.700256,735.128967 
	C712.854797,735.248779 713.654602,737.642700 713.271484,739.260681 
	C713.011047,740.360718 712.456177,741.093872 711.276062,741.090881 
	C709.849426,741.087341 709.157227,740.127075 709.035278,738.879883 
	C708.857666,737.062988 708.879761,735.226624 708.813538,732.919617 
M720.579590,729.528381 
	C722.086426,725.908264 719.297119,726.294983 717.312622,726.150818 
	C715.645752,726.029724 713.667847,726.213013 713.675476,728.402771 
	C713.685059,731.112610 716.039246,730.549866 717.730774,730.578247 
	C718.500610,730.591187 719.277466,730.183044 720.579590,729.528381 
z"/>
<path fill="#000000" opacity="1.000000" stroke="none" 
	d="
M577.746887,724.232788 
	C577.890015,728.436035 578.000305,732.239075 577.971802,736.041138 
	C577.958740,737.785095 578.564819,740.063721 576.427612,740.855530 
	C574.396057,741.608154 573.085205,739.725098 571.906006,738.421204 
	C569.909485,736.213379 568.120178,733.818237 565.810547,730.966919 
	C563.836060,734.249451 564.589355,736.425781 564.298401,738.423279 
	C564.090576,739.849792 563.711304,741.082886 561.927063,740.952942 
	C560.509644,740.849609 559.884766,739.842590 559.872986,738.589722 
	C559.820679,733.035400 559.850342,727.480286 559.850342,721.524231 
	C565.653809,722.639648 567.082397,728.644470 571.863586,729.918396 
	C573.506653,728.351990 572.628113,726.392029 572.959106,724.696472 
	C573.187134,723.528137 573.319519,722.299072 574.678406,721.958923 
	C576.233154,721.569885 577.208618,722.340515 577.746887,724.232788 
z"/>
<path fill="#000000" opacity="1.000000" stroke="none" 
	d="
M504.816650,728.576782 
	C506.857605,723.618286 510.245605,720.790344 515.252625,720.927429 
	C519.292664,721.038208 522.517883,722.982056 524.219299,727.014771 
	C525.991760,731.215820 525.112732,734.929382 522.207397,738.110901 
	C518.911072,741.720459 514.625000,742.209290 510.264252,740.568909 
	C506.238556,739.054504 504.438843,735.806335 504.663239,731.484375 
	C504.706421,730.652832 504.716125,729.819641 504.816650,728.576782 
M510.122070,729.411804 
	C509.270905,732.161133 510.088196,734.345581 512.477539,735.868958 
	C514.461853,737.134033 516.321350,736.463257 518.006409,735.155762 
	C519.961853,733.638428 520.283508,731.581299 519.726990,729.315430 
	C519.243347,727.346436 517.843323,726.118408 516.008179,725.624146 
	C513.236877,724.877625 511.720795,726.746460 510.122070,729.411804 
z"/>
<path fill="#000000" opacity="1.000000" stroke="none" 
	d="
M657.109314,720.779053 
	C664.548889,722.016113 668.169006,725.913696 667.841797,731.879700 
	C667.584351,736.573608 664.043152,740.609985 659.625244,741.245239 
	C654.581421,741.970520 650.238403,739.538208 648.377502,734.945740 
	C646.529846,730.385986 647.990112,725.308594 652.129700,722.642700 
	C653.487427,721.768250 655.169434,721.397339 657.109314,720.779053 
M656.274963,726.112549 
	C655.378296,726.817200 654.271118,727.368408 653.624756,728.255493 
	C651.757629,730.817810 652.439270,733.354797 654.420959,735.458435 
	C656.140076,737.283325 658.343201,737.100891 660.340027,735.845642 
	C662.834473,734.277649 663.188049,731.811035 662.329407,729.274353 
	C661.499390,726.822083 659.589539,725.631287 656.274963,726.112549 
z"/>
<path fill="#000000" opacity="1.000000" stroke="none" 
	d="
M427.428802,721.093445 
	C430.693146,721.006897 433.514465,720.949768 436.332367,721.023315 
	C437.509888,721.054077 438.779358,721.388062 438.859589,722.865112 
	C438.949280,724.515808 437.771851,725.046631 436.328613,725.349792 
	C434.094574,725.819092 431.325623,724.415894 429.597198,726.940063 
	C430.387054,729.468018 432.361237,728.656982 433.845123,728.835938 
	C435.662628,729.055054 437.189392,729.447144 437.074249,731.702026 
	C436.972626,733.692505 435.453705,733.890808 433.915710,734.157715 
	C432.566467,734.391907 430.835114,733.630676 429.875305,735.688965 
	C431.619446,737.829224 434.135345,736.656494 436.228760,737.083252 
	C437.572479,737.357239 438.950195,737.549011 439.020599,739.307739 
	C439.088776,741.011047 437.868683,741.721741 436.478943,741.779785 
	C433.505615,741.903992 430.518738,741.885132 427.545380,741.749329 
	C426.073029,741.682007 424.980835,740.662781 424.980377,739.169373 
	C424.978668,733.705322 425.075378,728.239197 425.292358,722.780212 
	C425.314453,722.223816 426.395020,721.709473 427.428802,721.093445 
z"/>
<path fill="#000000" opacity="1.000000" stroke="none" 
	d="
M704.022827,739.218628 
	C700.430481,742.835144 696.277283,741.158936 692.350525,740.836853 
	C690.774902,740.707703 690.749451,738.923401 690.738586,737.591248 
	C690.703491,733.279846 690.746033,728.967712 690.697388,724.656616 
	C690.670044,722.235901 691.733826,720.880249 694.195923,720.831482 
	C696.847534,720.778870 699.501404,720.769226 702.153015,720.815491 
	C703.843262,720.844910 705.070740,721.601318 705.104004,723.458618 
	C705.137878,725.349915 703.864136,725.969727 702.206543,726.171143 
	C700.486267,726.380127 698.613953,725.899353 696.926086,727.003784 
	C698.025757,730.225586 703.753723,726.995544 703.149353,731.846191 
	C702.621582,736.081543 697.426025,732.471069 696.151184,735.993530 
	C698.319092,738.234802 702.321106,735.534729 704.022827,739.218628 
z"/>
<path fill="#000000" opacity="1.000000" stroke="none" 
	d="
M676.200073,725.263550 
	C676.362854,727.203186 676.754089,728.517395 678.511597,726.795044 
	C679.813599,725.519165 680.909607,724.034241 682.111633,722.654846 
	C683.571411,720.979553 685.211365,720.202026 687.263672,721.604370 
	C687.841370,723.459656 686.667297,724.725037 685.602966,725.563660 
	C680.668274,729.451843 682.305420,733.013733 685.755737,736.744568 
	C686.715088,737.781921 688.068665,738.733643 687.968994,740.673889 
	C682.103943,743.218506 681.211487,737.042175 678.276123,734.856934 
	C676.105164,735.664490 676.546265,737.240540 676.575439,738.704651 
	C676.616272,740.748962 675.233887,741.219299 673.573242,741.116943 
	C671.687195,741.000732 671.179016,739.930115 671.296326,738.057922 
	C671.566284,733.745728 671.548645,729.416260 671.720154,725.096680 
	C671.782837,723.517639 671.364075,721.318604 673.752625,721.247009 
	C676.028137,721.178772 675.906799,723.325684 676.200073,725.263550 
z"/>
<path fill="#000000" opacity="1.000000" stroke="none" 
	d="
M464.566315,732.506836 
	C465.608246,735.305298 467.580414,737.356384 467.540771,740.408203 
	C465.607391,741.599243 464.145538,741.523132 462.536804,739.544312 
	C459.176575,735.411133 456.664703,735.409790 453.003662,739.434692 
	C451.760101,740.801880 450.672211,741.766052 448.246460,740.472412 
	C450.246826,733.485168 453.673096,727.072815 457.204193,719.865356 
	C461.411682,723.522034 462.157501,728.310120 464.566315,732.506836 
z"/>
<path fill="#000000" opacity="1.000000" stroke="none" 
	d="
M474.369141,727.293579 
	C471.973328,729.600891 471.801849,731.891357 473.520599,734.240906 
	C475.213196,736.554626 477.394226,737.218201 480.076538,735.881470 
	C481.922516,734.961487 483.965302,734.823792 484.556732,737.135376 
	C485.133514,739.389709 482.926453,740.183716 481.254913,740.822510 
	C476.376007,742.687134 471.185272,740.494934 468.623413,735.618896 
	C466.330658,731.255066 467.638397,725.597046 471.616364,722.669678 
	C475.944275,719.484619 480.549927,720.286011 485.509064,725.301208 
	C484.292450,727.933228 482.571411,728.973816 479.765381,727.257202 
	C478.085815,726.229736 476.409058,725.806824 474.369141,727.293579 
z"/>
<path fill="#000000" opacity="1.000000" stroke="none" 
	d="
M379.658203,734.894592 
	C379.659424,731.925720 379.544006,729.421143 379.696014,726.932861 
	C379.849487,724.420471 378.208984,721.021790 383.041016,720.721985 
	C389.230804,720.337952 394.065308,722.472046 395.040649,726.523865 
	C395.875031,729.990356 393.630554,734.065979 389.933472,735.109558 
	C387.036377,735.927368 383.936340,736.074158 383.461395,740.046204 
	C383.357056,740.919067 382.310913,741.152893 381.421631,741.021790 
	C380.477112,740.882507 379.943909,740.239258 379.855652,739.345886 
	C379.725250,738.025696 379.718384,736.693237 379.658203,734.894592 
M386.516998,731.587524 
	C388.416077,731.307312 390.156891,730.565674 390.322418,728.473083 
	C390.443787,726.938965 389.034241,726.368896 387.627563,726.239319 
	C386.094116,726.097839 384.585205,726.171814 384.083649,727.998413 
	C383.632355,729.641846 383.323578,731.343384 386.516998,731.587524 
z"/>
<path fill="#000000" opacity="1.000000" stroke="none" 
	d="
M328.832397,728.937927 
	C329.456055,726.033386 327.369293,721.580627 331.411591,721.693359 
	C334.877594,721.790039 332.939758,726.006531 333.260101,728.386230 
	C333.522583,730.336365 333.436218,732.386414 333.163971,734.344849 
	C332.544159,738.803040 328.805237,742.104858 324.733856,742.031006 
	C320.315735,741.950867 316.480469,738.515686 316.070251,733.961243 
	C315.817993,731.160583 315.900726,728.319214 315.998810,725.501892 
	C316.053528,723.929749 315.806427,721.789551 318.161469,721.698792 
	C320.715973,721.600403 320.220581,723.794800 320.291595,725.350037 
	C320.382385,727.338196 320.335419,729.333496 320.317719,731.325500 
	C320.291199,734.312256 321.127655,736.696655 324.622620,736.800171 
	C328.371643,736.911194 328.771698,734.241272 328.805756,731.380676 
	C328.813660,730.716675 328.822357,730.052673 328.832397,728.937927 
z"/>
<path fill="#000000" opacity="1.000000" stroke="none" 
	d="
M496.760040,736.376770 
	C498.348785,735.839233 499.563995,735.135132 500.829865,735.027649 
	C501.983643,734.929810 503.077698,735.718140 503.486328,736.931458 
	C503.864105,738.053162 503.077209,738.814026 502.314545,739.466675 
	C500.106812,741.356201 497.422455,741.564148 494.752991,741.208435 
	C490.758911,740.676025 487.822906,738.400330 486.990723,734.453979 
	C486.124756,730.347351 485.891205,726.065186 489.797363,723.006531 
	C493.196014,720.345337 496.825958,720.232849 500.514404,722.337769 
	C501.940063,723.151306 503.804535,724.144592 503.048248,726.087036 
	C502.322754,727.950500 500.390503,727.858093 498.733978,727.150269 
	C495.595673,725.809082 492.561371,725.498840 491.530640,729.489807 
	C490.553101,733.274597 492.072235,736.036926 496.760040,736.376770 
z"/>
<path fill="#000000" opacity="1.000000" stroke="none" 
	d="
M585.044189,731.256836 
	C585.094116,728.230042 584.489624,726.228638 581.399170,725.880249 
	C580.004089,725.722961 578.846619,724.897522 578.969666,723.237610 
	C579.119141,721.221375 580.642822,720.996155 582.225586,721.000732 
	C585.720459,721.010803 589.216492,721.006104 592.709351,721.103577 
	C594.070007,721.141479 595.430176,721.504761 595.790894,723.109192 
	C596.195557,724.909058 594.854675,725.538330 593.535400,725.767395 
	C590.426941,726.307373 590.159668,728.473389 590.210632,730.968262 
	C590.254822,733.131470 590.259338,735.297913 590.190552,737.460083 
	C590.137451,739.131104 590.142456,740.997253 587.782593,741.104553 
	C585.399109,741.212952 585.234680,739.410706 585.159607,737.697144 
	C585.072205,735.702209 585.087463,733.702820 585.044189,731.256836 
z"/>
<path fill="#000000" opacity="1.000000" stroke="none" 
	d="
M354.272339,720.901123 
	C358.059082,720.948975 361.385742,720.939392 364.705170,721.089600 
	C365.909546,721.144104 366.984985,721.721924 367.025055,723.205933 
	C367.057190,724.396484 366.371704,725.206604 365.261444,725.182861 
	C361.011078,725.091797 361.060059,727.988831 361.086456,730.937622 
	C361.099854,732.434387 361.198334,733.945129 361.035828,735.425171 
	C360.820160,737.388916 362.054718,740.713989 359.100342,740.735901 
	C355.619537,740.761658 357.192871,737.230347 356.932831,735.189697 
	C356.682373,733.224365 356.850159,731.204590 356.849762,729.208740 
	C356.849335,726.866699 355.943268,725.444580 353.364716,725.336731 
	C351.660492,725.265503 349.106384,725.752869 349.370667,722.977051 
	C349.606201,720.503052 352.104553,721.172546 354.272339,720.901123 
z"/>
<path fill="#000000" opacity="1.000000" stroke="none" 
	d="
M413.584106,735.984985 
	C415.434692,738.421021 417.775909,737.247986 419.827148,737.532654 
	C421.106415,737.710144 422.075562,738.095947 422.156952,739.586304 
	C422.250702,741.303467 421.271393,742.113220 419.738770,742.041077 
	C416.756744,741.900635 413.776642,741.631897 410.809753,741.293396 
	C409.119720,741.100464 408.809174,739.726746 408.810730,738.318970 
	C408.815918,733.656677 408.815308,728.993408 408.916870,724.332642 
	C408.949036,722.855042 409.072845,720.993774 411.168152,721.156311 
	C413.137726,721.309021 413.119507,723.141052 413.170776,724.629639 
	C413.296814,728.288513 413.355927,731.949585 413.584106,735.984985 
z"/>
<path fill="#000000" opacity="1.000000" stroke="none" 
	d="
M343.271515,732.699219 
	C342.766418,737.199036 345.021332,737.878845 348.419434,737.666931 
	C349.979126,737.569580 352.733673,736.586060 352.693054,739.435852 
	C352.654968,742.106812 349.964935,741.299500 348.323730,741.308167 
	C336.348480,741.370911 338.997162,741.782471 338.719849,731.798096 
	C338.645905,729.136108 338.705841,726.468933 338.761841,723.805359 
	C338.787384,722.589478 339.069244,721.341919 340.576660,721.282166 
	C342.162781,721.219360 343.065277,722.248718 343.132263,723.762329 
	C343.257294,726.588013 343.232056,729.420288 343.271515,732.699219 
z"/>
<path fill="#000000" opacity="1.000000" stroke="none" 
	d="
M402.185242,736.713257 
	C401.946289,738.708679 402.437103,740.952148 400.034546,740.872314 
	C397.694641,740.794434 398.101257,738.593506 398.069885,737.040894 
	C397.989990,733.088257 397.982025,729.132385 398.048889,725.179565 
	C398.075134,723.627197 397.628723,721.301941 399.875824,721.248169 
	C402.449982,721.186707 402.048492,723.683838 402.104889,725.379089 
	C402.225311,729.000183 402.171143,732.627075 402.185242,736.713257 
z"/>
<path fill="#000000" opacity="1.000000" stroke="none"
	d="
M370.452759,727.415405
	C370.488403,726.235229 370.449768,725.398682 370.521179,724.571655
	C370.640289,723.191467 370.046570,721.201477 372.463531,721.378601
	C374.255707,721.510010 374.240082,723.112305 374.245026,724.447266
	C374.262238,729.107849 374.261292,733.768982 374.200714,738.429077
	C374.182220,739.850830 373.739716,741.239929 371.932465,740.972961
	C370.459747,740.755371 370.451019,739.448975 370.456909,738.227173
	C370.473663,734.739380 370.441071,731.251221 370.452759,727.415405
z"/>
</svg>