<svg version="1.1" id="Layer_1" xmlns="http://www.w3.org/2000/svg" xmlns:xlink="http://www.w3.org/1999/xlink" x="0px" y="0px"
     width="100%" viewBox="10 250 1024 450" enable-background="new 0 0 1024 500" xml:space="preserve">

<path fill="#6895D2" opacity="1.000000" stroke="none" 
	d="
M382.323853,619.999878 
	C382.319855,625.831909 382.206207,631.166931 382.349670,636.494934 
	C382.437866,639.770325 381.427887,641.229065 377.845215,641.382080 
	C359.697296,642.157349 341.540314,641.871338 323.390533,642.183960 
	C317.769135,642.280701 317.834076,638.907654 317.837280,634.996826 
	C317.877533,585.842163 317.901978,536.687561 317.851929,487.532928 
	C317.848694,484.343323 318.678864,480.981079 317.084503,477.901825 
	C315.128632,478.216797 314.889679,479.640198 314.389771,480.832336 
	C300.112610,514.878601 285.796570,548.908691 271.609772,582.992554 
	C269.489105,588.087402 266.345398,590.403198 260.602844,590.268311 
	C246.780411,589.943420 232.943558,590.040466 219.116150,590.231079 
	C214.920822,590.288940 212.921967,588.525513 211.332581,584.807556 
	C200.608612,559.721802 189.664963,534.730103 178.829239,509.691986 
	C175.330734,501.608032 171.966171,493.466187 168.490997,485.372009 
	C167.390350,482.808441 166.362549,480.174561 164.121872,477.627045 
	C162.600143,480.325958 163.132492,482.823761 163.131531,485.168976 
	C163.111160,534.823608 163.139481,584.478271 163.150177,634.132874 
	C163.151733,641.312866 163.132568,641.321167 156.018341,641.322266 
	C138.855743,641.325012 121.693130,641.326599 104.530540,641.313171 
	C98.107132,641.308167 97.969513,641.189331 97.967209,634.994934 
	C97.934639,547.682617 97.908958,460.370270 97.893974,373.057953 
	C97.892899,366.822998 98.044067,366.705231 104.417603,366.703156 
	C128.745163,366.695312 153.073975,366.822388 177.399185,366.583008 
	C181.883286,366.538879 183.941177,368.343048 185.636871,372.091095 
	C197.977219,399.367310 210.645538,426.496857 222.788849,453.859711 
	C227.578934,464.653442 232.844666,475.193115 237.984512,485.805359 
	C238.619446,487.116364 239.063797,488.648254 240.831909,489.135345 
	C242.848282,488.483612 243.171112,486.448914 243.894028,484.890289 
	C254.323563,462.403778 264.695251,439.890411 275.037842,417.363708 
	C282.322479,401.497345 289.565125,385.611511 296.763092,369.705658 
	C297.716522,367.598816 299.114807,366.688202 301.391693,366.690918 
	C327.052155,366.721283 352.712708,366.728088 378.373138,366.697479 
	C381.085602,366.694244 382.373962,367.804993 382.295441,370.560760 
	C382.229034,372.891235 382.312256,375.225677 382.312408,377.558380 
	C382.317078,458.205566 382.319733,538.852722 382.323853,619.999878 
z"/>
<path fill="#6895D2" opacity="1.000000" stroke="none" 
	d="
M744.000000,366.685974 
	C762.160645,366.742462 779.840515,366.300018 797.476990,366.981873 
	C819.752441,367.843048 840.846375,373.506775 857.591675,388.994598 
	C867.187012,397.869354 873.236206,409.519226 875.586182,422.768890 
	C878.341248,438.303192 878.354065,453.488831 871.397827,468.134308 
	C867.819214,475.668671 862.819214,481.949829 856.240784,487.021088 
	C854.702942,488.206604 853.169739,489.398193 851.440247,490.737305 
	C855.144226,494.832214 860.004578,496.097382 863.894470,498.866852 
	C880.210510,510.483582 889.830627,526.103882 893.226501,545.781372 
	C895.809143,560.746704 895.476929,575.561218 891.310486,590.169250 
	C885.606445,610.168518 872.971313,623.879395 853.696838,631.885803 
	C836.290649,639.116089 818.102173,641.066650 799.561584,641.339844 
	C775.911072,641.688354 752.261780,641.203674 728.602234,641.825378 
	C703.641296,642.481201 678.651367,641.980652 653.675598,642.173889 
	C649.225952,642.208252 647.526489,640.938477 647.589478,636.214844 
	C647.838318,617.556702 647.773743,598.893188 647.665649,580.232666 
	C647.646851,576.988464 648.879089,575.266907 651.587463,573.499207 
	C669.065674,562.091980 688.610413,557.380737 708.979797,555.057251 
	C712.651978,554.638428 713.237854,556.555786 713.225098,559.451782 
	C713.192810,566.782532 713.343018,574.116760 713.159363,581.443115 
	C713.063232,585.276306 714.426086,586.759644 718.364136,586.741272 
	C743.523071,586.623901 768.685547,586.879211 793.840332,586.537415 
	C800.391052,586.448425 807.151733,586.036133 813.381165,583.230957 
	C825.355347,577.838867 829.961914,568.932007 829.322510,557.529419 
	C828.617859,544.965637 819.685852,534.841431 807.935791,532.306946 
	C801.599487,530.940186 795.134644,530.211487 788.636475,530.213318 
	C760.312012,530.221558 731.978821,529.880920 703.666260,530.484497 
	C685.586670,530.870056 668.030518,534.516174 652.237976,544.149292 
	C651.530579,544.580811 650.783630,544.976196 650.007141,545.254517 
	C649.579407,545.407898 649.051575,545.282043 648.571655,545.282043 
	C647.130066,543.877502 647.684875,542.122925 647.684265,540.537354 
	C647.662659,484.886597 647.668823,429.235809 647.677856,373.585052 
	C647.678955,366.706024 647.696289,366.689514 654.525757,366.688049 
	C684.183838,366.681763 713.841919,366.685944 744.000000,366.685974 
M719.765747,422.091431 
	C714.573975,421.356171 713.090332,424.001831 713.138367,428.760345 
	C713.272827,442.074402 713.352905,455.395569 713.038818,468.704163 
	C712.921448,473.677368 714.766968,474.824921 719.404907,474.778595 
	C740.375061,474.569122 761.348511,474.655457 782.320496,474.721893 
	C785.354492,474.731506 788.296326,474.301971 791.210571,473.653412 
	C810.998352,469.249512 819.289673,448.338867 807.616943,431.845947 
	C802.719788,424.926514 795.159546,422.438324 787.112793,422.331696 
	C764.979004,422.038177 742.839783,422.151245 719.765747,422.091431 
z"/>
<path fill="#6895D2" opacity="1.000000" stroke="none" 
	d="
M585.106567,440.010620 
	C591.620361,463.471497 598.003723,486.548889 604.423096,509.616272 
	C605.625061,513.935303 607.031372,518.197510 608.236694,522.515625 
	C610.046570,528.999573 609.638245,529.729614 603.073059,529.130249 
	C586.942993,527.657715 570.792358,528.479736 554.651123,528.321472 
	C553.318726,528.308350 551.978271,528.277893 550.654114,528.396545 
	C540.768372,529.282898 540.959656,529.245972 538.456726,519.344360 
	C530.956665,489.674561 523.597229,459.975891 517.499756,429.976501 
	C516.922607,427.136841 516.082642,424.189026 513.822754,422.080017 
	C511.543243,422.727356 511.582733,424.524323 511.204285,426.101410 
	C504.259399,455.044647 497.335327,483.992950 490.327118,512.920898 
	C488.526398,520.353943 486.418854,527.712280 484.526764,535.123901 
	C483.991760,537.219666 483.116302,538.668335 480.802612,539.258057 
	C456.160431,545.538879 433.820953,556.765625 412.795258,570.871460 
	C410.156799,572.641541 406.725159,576.232910 404.065887,574.216736 
	C401.040222,571.922791 404.603821,568.266418 405.563171,565.296143 
	C416.350037,531.898071 425.402771,497.997253 434.946411,464.238861 
	C441.007996,442.797485 446.952484,421.322327 453.141296,399.917755 
	C458.627136,380.944611 472.349701,371.189484 490.999878,368.135284 
	C507.009796,365.513458 523.185791,365.718170 539.166077,368.921967 
	C558.448853,372.787872 570.370605,384.727966 575.046204,403.568420 
	C578.052734,415.683319 582.047119,427.504456 585.106567,440.010620 
z"/>
<path fill="#6895D2" opacity="1.000000" stroke="none" 
	d="
M468.112915,605.065491 
	C456.690125,604.756348 456.629242,604.738708 453.511047,615.510681 
	C451.430328,622.698364 449.361847,629.900635 447.667664,637.184631 
	C446.841919,640.734619 445.252563,642.217896 441.568146,642.187317 
	C425.076782,642.050354 408.583527,642.151611 392.091766,642.042480 
	C385.327026,641.997742 384.648956,640.542603 387.898468,634.810181 
	C406.195099,602.533691 434.233765,582.340942 468.441620,569.830383 
	C493.120911,560.804504 518.592468,556.002014 544.866760,554.522827 
	C564.538391,553.415344 584.076538,554.021362 603.628418,555.818665 
	C608.082520,556.228088 612.493774,557.120361 616.917725,557.833923 
	C619.669128,558.277832 620.631714,560.401550 621.257996,562.735718 
	C624.271667,573.967896 627.250000,585.209534 630.261597,596.442261 
	C633.745483,609.436401 637.263611,622.421448 640.730652,635.420166 
	C641.153320,637.004700 641.351990,638.649109 641.621826,640.091553 
	C640.103821,641.871887 638.325928,641.316345 636.755249,641.319397 
	C618.263855,641.355957 599.770569,641.194580 581.282288,641.434998 
	C576.862427,641.492432 575.670349,639.450439 574.801453,635.768860 
	C572.626526,626.554138 570.072937,617.429565 567.776611,608.242432 
	C567.048523,605.329224 565.461914,604.238464 562.443848,604.291992 
	C538.302734,604.719788 514.151001,603.659485 490.010681,604.937012 
	C482.884033,605.314209 475.722961,605.040588 468.112915,605.065491 
z"/>
</svg>